<?xml version="1.0" standalone="no"?>
<!DOCTYPE svg PUBLIC "-//W3C//DTD SVG 20010904//EN"
 "http://www.w3.org/TR/2001/REC-SVG-20010904/DTD/svg10.dtd">
<svg version="1.0" xmlns="http://www.w3.org/2000/svg"
 width="217.000000pt" height="220.000000pt" viewBox="0 0 217.000000 220.000000"
 preserveAspectRatio="xMidYMid meet">

<g transform="translate(0.000000,220.000000) scale(0.100000,-0.100000)"
fill="#000000" stroke="none">
<path d="M1594 2065 c-76 -17 -151 -45 -209 -79 -41 -24 -44 -29 -35 -52 7
-17 6 -32 -2 -47 -6 -12 13 1 44 29 64 58 161 108 259 132 119 29 68 44 -57
17z"/>
<path d="M178 2003 c-40 -10 -13 -20 72 -26 83 -6 149 -17 196 -33 13 -4 10 0
-7 12 -14 11 -34 27 -43 37 -14 14 -34 17 -109 16 -51 -1 -100 -3 -109 -6z"/>
<path d="M1952 843 c-27 -84 -72 -286 -72 -323 0 -15 -3 -30 -7 -34 -4 -4 -9
-30 -11 -59 -7 -97 -53 -175 -142 -240 -14 -10 -2 -5 26 10 183 100 303 338
274 543 -23 166 -40 191 -68 103z"/>
<path d="M1022 238 c39 -36 158 -100 218 -117 67 -19 158 -23 246 -11 125 17
135 28 20 22 -58 -3 -121 0 -159 8 -70 14 -192 47 -222 60 -11 5 -36 16 -55
24 -19 9 -46 23 -60 32 -14 9 -8 1 12 -18z"/>
<path d="M1618 143 c7 -3 16 -2 19 1 4 3 -2 6 -13 5 -11 0 -14 -3 -6 -6z"/>
</g>
</svg>
